<svg width="819" height="442" viewBox="0 0 819 442" fill="none" xmlns="http://www.w3.org/2000/svg">
<g clip-path="url(#clip0)">
<path d="M694 154.5L703.5 131L775 283.5H752L694 154.5Z" fill="#D8D8D8"/>
<path d="M77.5 282.5H60.5L199 97.5L248.5 123.5L372 282.5H322.5L199 123.5L77.5 282.5Z" fill="#D32626"/>
<path d="M231.5 36L45 282.5H28L231.5 11L521.5 140.5L703.5 97.5L791.5 282.5H780.5L703.5 123.5L632.5 282.5H415L231.5 36Z" fill="#D32626"/>
<path d="M77.5 282.5H60.5L199 97.5L248.5 123.5L372 282.5H322.5L199 123.5L77.5 282.5Z" stroke="#D32626"/>
<path d="M231.5 36L45 282.5H28L231.5 11L521.5 140.5L703.5 97.5L791.5 282.5H780.5L703.5 123.5L632.5 282.5H415L231.5 36Z" stroke="#D32626"/>
<path d="M111.5 283H87L84 284L197.5 131L209 147.5L111.5 283Z" fill="#D8D8D8"/>
<rect x="179" y="224" width="20" height="19" fill="#D32626"/>
<rect x="179" y="224" width="20" height="19" fill="#D32626"/>
<rect x="205" y="249" width="20" height="19" fill="#D32626"/>
<rect x="205" y="249" width="20" height="19" fill="#D32626"/>
<rect x="179" y="249" width="20" height="19" fill="#D32626"/>
<rect x="179" y="249" width="20" height="19" fill="#D32626"/>
<rect x="205" y="224" width="20" height="19" fill="#D32626"/>
<rect x="205" y="224" width="20" height="19" fill="#D32626"/>
<rect x="671" y="229" width="20" height="19" fill="#D32626"/>
<rect x="671" y="229" width="20" height="19" fill="#D32626"/>
<rect x="697" y="254" width="20" height="19" fill="#D32626"/>
<rect x="697" y="254" width="20" height="19" fill="#D32626"/>
<rect x="671" y="254" width="20" height="19" fill="#D32626"/>
<rect x="671" y="254" width="20" height="19" fill="#D32626"/>
<rect x="697" y="229" width="20" height="19" fill="#D32626"/>
<rect x="697" y="229" width="20" height="19" fill="#D32626"/>
<path d="M472.5 278.5H546.5L525 145.5L472.5 278.5Z" fill="#BC2222"/>
<path d="M407 62V108L447.5 122.5V62H407Z" fill="#D32626"/>
<path d="M125.449 431V370.16H74.4727V431H55.8203V299.262H74.4727V354.535H125.449V299.262H144.102V431H125.449ZM301.094 431L287.617 393.695H232.637L219.258 431H200.117L249.922 299.262H271.113L320.039 431H301.094ZM260.273 313.324L259.102 317.133L252.363 337.836L237.617 379.145H282.832L265.938 330.316L260.273 313.324ZM379.961 299.262H460.332V314.496H429.473V415.766H460.332V431H379.961V415.766H410.82V314.496H379.961V299.262ZM543.496 431V299.262H562.148V415.766H627.773V431H543.496ZM696.289 431V299.262H786.035V314.496H714.941V355.707H780.176V370.746H714.941V415.766H790.039V431H696.289Z" fill="#313944"/>
</g>
<defs>
<clipPath id="clip0">
<rect width="819" height="442" fill="white"/>
</clipPath>
</defs>
</svg>
