<svg width="327" height="253" viewBox="0 0 327 253" fill="none" xmlns="http://www.w3.org/2000/svg">
<g id="LOGOHAILE" clip-path="url(#clip0)">
<path id="Vector 3" d="M53 244.5V126H13L126.5 10L172 48.5V24.5H204V79L248 126H204V166.5" stroke="#D32626" stroke-width="9"/>
<path id="HAILE" d="M72.952 177.896H71.512V245H72.952V211.688H115.096V245H116.632V177.896H115.096V210.248H72.952V177.896ZM154.502 178.856L170.918 221H138.182L154.502 178.856ZM180.71 245H182.342L155.366 176.84H153.734L126.758 245H128.39L137.51 222.44H171.494L180.71 245ZM219.483 177.896C209.499 177.896 199.419 177.896 189.435 177.896V179.24H203.739V243.56H189.435V245C199.419 245 209.499 245 219.483 245V243.56H205.179V179.24H219.483V177.896ZM232.138 177.896H230.602V245C243.178 245 255.658 245 268.234 245V243.464H232.138V177.896ZM281.105 212.168H315.857V210.632H281.105V179.336H316.625V177.896H279.569V245H279.761H316.817V243.56H281.105V212.168Z" fill="black"/>
</g>
<defs>
<clipPath id="clip0">
<rect width="327" height="253" fill="white"/>
</clipPath>
</defs>
</svg>
