<svg width="646" height="300" viewBox="0 0 646 300" fill="none" xmlns="http://www.w3.org/2000/svg">
<path d="M77.5 282.5H60.5L199 97.5L248.5 123.5L372 282.5H322.5L199 123.5L77.5 282.5Z" fill="#D32626"/>
<path d="M231.5 36L45 282.5H28L231.5 11L521.5 140.5L632.5 282.5H415L231.5 36Z" fill="#D32626"/>
<path d="M77.5 282.5H60.5L199 97.5L248.5 123.5L372 282.5H322.5L199 123.5L77.5 282.5Z" stroke="#D32626"/>
<path d="M231.5 36L45 282.5H28L231.5 11L521.5 140.5L632.5 282.5H415L231.5 36Z" stroke="#D32626"/>
<path d="M111.5 283H87L84 284L197.5 131L209 147.5L111.5 283Z" fill="#D8D8D8"/>
<rect x="179" y="224" width="20" height="19" fill="#D32626"/>
<rect x="179" y="224" width="20" height="19" fill="#D32626"/>
<rect x="205" y="249" width="20" height="19" fill="#D32626"/>
<rect x="205" y="249" width="20" height="19" fill="#D32626"/>
<rect x="179" y="249" width="20" height="19" fill="#D32626"/>
<rect x="179" y="249" width="20" height="19" fill="#D32626"/>
<rect x="205" y="224" width="20" height="19" fill="#D32626"/>
<rect x="205" y="224" width="20" height="19" fill="#D32626"/>
<path d="M407 62V108L447.5 122.5V62H407Z" fill="#D32626"/>
</svg>
